<?xml version="1.0" encoding="UTF-8"?>
<svg version="1.1" xmlns="http://www.w3.org/2000/svg" width="500" height="500">
<path d="M0 0 C0.66 0 1.32 0 2 0 C3.99521471 5.22135934 5.98889637 10.44330111 7.98120117 15.66577148 C8.70234592 17.55598811 9.42370026 19.44612479 10.14526367 21.33618164 C14.17612014 31.89729522 18.18637961 42.4651454 22.12109375 53.0625 C22.44997086 53.94659546 22.77884796 54.83069092 23.11769104 55.74157715 C24.67655117 59.93265385 26.23012754 64.12552793 27.77368164 68.32226562 C30.7134939 76.2646242 33.82201412 84.09803282 37.25 91.84375 C37.57935547 92.58911011 37.90871094 93.33447021 38.24804688 94.10241699 C41.2007461 101.60487866 41.2007461 101.60487866 47.1875 106.3125 C48.115625 106.539375 49.04375 106.76625 50 107 C50 107.66 50 108.32 50 109 C38.45 109 26.9 109 15 109 C17.67953841 106.32046159 20.39665745 106.02952644 24 105 C26.34197559 102.65802441 26.29978597 102.1670104 26.32421875 98.984375 C26.19981089 93.66354636 24.68779377 89.18726304 22.8125 84.25 C22.33864868 82.9520752 22.33864868 82.9520752 21.85522461 81.62792969 C20.91959027 79.07891222 19.96366535 76.53853493 19 74 C18.72865234 73.27941406 18.45730469 72.55882812 18.17773438 71.81640625 C16.81349442 68.19958405 15.42318181 64.59402595 14 61 C13.96261719 62.01578125 13.92523438 63.0315625 13.88671875 64.078125 C13.24272965 78.62021506 11.42785086 93.5006829 0.125 103.9375 C-1.22596392 104.98993631 -2.60033174 106.01326069 -4 107 C-4.56976563 107.433125 -5.13953125 107.86625 -5.7265625 108.3125 C-12.28758591 112.4745589 -20.56621549 111.87186362 -28 111 C-32.67372808 109.45575651 -35.7006108 106.86501665 -38.4375 102.8125 C-41.49729986 96.54331006 -41.78771211 89.01072232 -39.94921875 82.3359375 C-34.68861361 69.39008616 -22.38795172 61.51516061 -10.921875 54.453125 C-10.2820166 54.05754395 -9.6421582 53.66196289 -8.98291016 53.25439453 C-7.23394257 52.19122449 -5.46515672 51.16085413 -3.6953125 50.1328125 C-0.54260391 47.63806049 0.12987705 45.8659893 1 42 C-2.05976691 42.33531692 -3.61457526 42.62110788 -5.84375 44.8125 C-6.3903125 45.534375 -6.936875 46.25625 -7.5 47 C-9.47952644 49.61446889 -10.45637527 50.81660853 -13.59375 51.875 C-14.78484375 51.936875 -14.78484375 51.936875 -16 52 C-16.66 51.34 -17.32 50.68 -18 50 C-17.69544183 43.98204774 -15.60300223 38.73770322 -13.4375 33.1640625 C-13.0861499 32.24410492 -12.7347998 31.32414734 -12.37280273 30.37631226 C-11.63314125 28.44373514 -10.8899944 26.51248875 -10.14355469 24.58251953 C-8.99673254 21.61654954 -7.86077457 18.64659343 -6.7265625 15.67578125 C-6.00583453 13.79663471 -5.28450181 11.91771998 -4.5625 10.0390625 C-4.04997681 8.7016954 -4.04997681 8.7016954 -3.52709961 7.33731079 C-3.2100708 6.51910858 -2.89304199 5.70090637 -2.56640625 4.85791016 C-2.28740479 4.13511871 -2.00840332 3.41232727 -1.72094727 2.66763306 C-1 1 -1 1 0 0 Z M-4 14 C-5.74135714 18.47875382 -7.4682081 22.96273037 -9.18188477 27.45214844 C-9.76679977 28.97840851 -10.35564166 30.50316971 -10.94848633 32.02636719 C-11.80026981 34.21687157 -12.63775698 36.41238899 -13.47265625 38.609375 C-13.74030289 39.2886908 -14.00794952 39.96800659 -14.28370667 40.66790771 C-16.02964178 45.30917613 -16.02964178 45.30917613 -15 50 C-11.5268735 48.21081362 -9.12436722 46.14934334 -6.5 43.3125 C-3.36771418 40.06395029 -3.36771418 40.06395029 -0.125 39.5 C2 40 2 40 3 41 C2.68813194 46.40571305 1.64029482 49.05334373 -2 53 C-4.20601407 54.68404312 -6.39294518 56.26365234 -8.6875 57.8125 C-19.11980366 65.11172325 -28.26483038 71.81160788 -31 85 C-31.61610034 91.28422349 -29.78008248 95.52671261 -27 101 C-26.34 101 -25.68 101 -25 101 C-25 101.66 -25 102.32 -25 103 C-19.18691827 105.6116744 -14.6644612 106.50728177 -8.42578125 104.92578125 C-1.94568979 102.45270287 2.77086661 98.11228821 6 92 C9.78568628 82.80037526 11.21646039 74.8984829 11.3125 65 C11.34150391 64.03449219 11.37050781 63.06898438 11.40039062 62.07421875 C11.51030495 49.30724707 6.3426883 37.90286041 1.75 26.1875 C1.29109375 25.00607422 0.8321875 23.82464844 0.359375 22.60742188 C-0.75637915 19.73667942 -1.87620559 16.86760225 -3 14 C-3.33 14 -3.66 14 -4 14 Z " fill="#989898" transform="translate(192,161)"/>
<path d="M0 0 C11.88 0 23.76 0 36 0 C36 0.66 36 1.32 36 2 C35.07767578 2.16435547 35.07767578 2.16435547 34.13671875 2.33203125 C33.32847656 2.49058594 32.52023437 2.64914063 31.6875 2.8125 C30.88699219 2.96332031 30.08648437 3.11414063 29.26171875 3.26953125 C26.55123392 4.14493827 25.52319994 4.56978133 24 7 C22.87461122 14.79537593 25.98831148 21.53684941 28.6875 28.75 C29.12255859 29.94882813 29.55761719 31.14765625 30.00585938 32.3828125 C32.45171592 39.06453023 35.081778 45.64182841 37.8503418 52.1953125 C39.59343673 56.44773861 41.08586358 60.77435011 42.5625 65.125 C44.62926343 71.1241998 46.73421523 77.07814206 49.15625 82.9453125 C50.51999468 86.26628334 51.75320713 89.63365925 53 93 C54.73204988 90.40192517 55.70663319 88.38317481 56.76831055 85.49462891 C57.10593918 84.58162018 57.44356781 83.66861145 57.79142761 82.72793579 C58.33359673 81.24225601 58.33359673 81.24225601 58.88671875 79.7265625 C59.26681595 78.69300629 59.64691315 77.65945007 60.03852844 76.59457397 C60.84653156 74.39448153 61.65256192 72.19366374 62.45678711 69.9921875 C63.66061027 66.69856937 64.87174921 63.40771733 66.08398438 60.1171875 C68.42096416 53.75601323 70.72449621 47.38341816 73 41 C73.3543512 40.00641479 73.70870239 39.01282959 74.0737915 37.98913574 C75.07020579 35.17202914 76.0484473 32.34936308 77.01953125 29.5234375 C77.3091423 28.70453033 77.59875336 27.88562317 77.8971405 27.04190063 C80.15414664 20.35980097 82.27891497 13.25541992 79.625 6.5 C76.07887843 3.12274136 72.76007906 2.58992433 68 2 C68 1.34 68 0.68 68 0 C78.23 0 88.46 0 99 0 C99 0.66 99 1.32 99 2 C97.6696875 2.5259375 97.6696875 2.5259375 96.3125 3.0625 C88.16802004 7.82625243 85.75903721 17.0400426 82.625 25.4375 C82.11101254 26.79157273 81.59617792 28.14532415 81.08056641 29.4987793 C79.6738208 33.20098992 78.28100483 36.90828607 76.89233398 40.61730957 C75.9774234 43.06028353 75.06028586 45.50241146 74.14257812 47.94433594 C71.57730511 54.7715587 69.01453693 61.59970642 66.46118164 68.43139648 C61.39330164 81.9878384 56.23638136 95.50762204 51 109 C50.01 109 49.02 109 48 109 C44.1495355 99.56503828 40.31494555 90.13862756 37 80.5 C34.54229393 73.36368761 31.79223237 66.36976197 28.96313477 59.37329102 C26.89358743 54.24961601 24.8708272 49.11416489 22.9375 43.9375 C22.7010376 43.30497314 22.4645752 42.67244629 22.22094727 42.02075195 C20.87476439 38.40069161 19.55592302 34.77149029 18.25 31.13671875 C14.12729318 19.67856435 14.12729318 19.67856435 8.84765625 8.71484375 C8 7 8 7 8 5 C5.34771188 3.92474806 2.71631546 2.90543849 0 2 C0 1.34 0 0.68 0 0 Z " fill="#979797" transform="translate(224,163)"/>
<path d="M0 0 C0.66 0.99 1.32 1.98 2 3 C1.30376329 5.52607738 0.52101414 7.77571824 -0.46484375 10.1875 C-0.73639786 10.88641357 -1.00795197 11.58532715 -1.28773499 12.30541992 C-2.15814796 14.54223782 -3.04621396 16.77142484 -3.9375 19 C-4.82370388 21.22907528 -5.70576238 23.45943609 -6.57655334 25.69458008 C-7.11912774 27.08613067 -7.67082659 28.47416444 -8.23240662 29.8581543 C-9.84775746 33.84646577 -9.84775746 33.84646577 -9 38 C-7.72799029 36.89718873 -6.45744147 35.79269231 -5.1875 34.6875 C-4.47980469 34.07261719 -3.77210938 33.45773438 -3.04296875 32.82421875 C-1.02060357 31.07310378 -1.02060357 31.07310378 0.6015625 29.2890625 C2 28 2 28 4.5625 27.6875 C7 28 7 28 9 30 C8.8884876 35.79864496 6.97595061 39.00405029 3 43 C0.81923579 44.7872705 -1.47402978 46.36477969 -3.8125 47.9375 C-5.05913388 48.80856734 -6.30393674 49.68226115 -7.546875 50.55859375 C-8.43922852 51.18677002 -8.43922852 51.18677002 -9.34960938 51.82763672 C-17.4588327 57.58806429 -22.95927395 63.9818903 -25 74 C-25.4662937 79.94524471 -24.08434068 84.5286057 -22 90 C-21.34 90 -20.68 90 -20 90 C-20 90.66 -20 91.32 -20 92 C-12.2468207 93.82350579 -6.24547387 94.74200399 1 91 C9.08229671 85.79140879 12.47814243 76.71990872 14.53222656 67.64990234 C14.99193597 65.04568212 15.20301201 62.55843465 15.31640625 59.91796875 C15.37924805 58.52094727 15.37924805 58.52094727 15.44335938 57.09570312 C15.48267578 56.13599609 15.52199219 55.17628906 15.5625 54.1875 C15.62727539 52.71893555 15.62727539 52.71893555 15.69335938 51.22070312 C15.7990226 48.81392973 15.90112327 46.40706017 16 44 C16.99 44.33 17.98 44.66 19 45 C18.13978052 78.81945773 18.13978052 78.81945773 7.11328125 91.1015625 C5.16003234 92.90515186 3.17174973 94.46895804 1 96 C0.43023437 96.433125 -0.13953125 96.86625 -0.7265625 97.3125 C-7.28758591 101.4745589 -15.56621549 100.87186362 -23 100 C-27.67372808 98.45575651 -30.7006108 95.86501665 -33.4375 91.8125 C-36.49729986 85.54331006 -36.78771211 78.01072232 -34.94921875 71.3359375 C-29.68861361 58.39008616 -17.38795172 50.51516061 -5.921875 43.453125 C-5.2820166 43.05754395 -4.6421582 42.66196289 -3.98291016 42.25439453 C-2.23394257 41.19122449 -0.46515672 40.16085413 1.3046875 39.1328125 C4.45739609 36.63806049 5.12987705 34.8659893 6 31 C2.94023309 31.33531692 1.38542474 31.62110788 -0.84375 33.8125 C-1.3903125 34.534375 -1.936875 35.25625 -2.5 36 C-4.47952644 38.61446889 -5.45637527 39.81660853 -8.59375 40.875 C-9.78484375 40.936875 -9.78484375 40.936875 -11 41 C-11.66 40.34 -12.32 39.68 -13 39 C-12.65973572 33.77599023 -11.1542296 29.15830383 -9.27734375 24.31640625 C-9.01240616 23.61603745 -8.74746857 22.91566864 -8.47450256 22.19407654 C-7.63555237 19.98092701 -6.78672031 17.77172627 -5.9375 15.5625 C-5.36327213 14.05298534 -4.78969794 12.54322184 -4.21679688 11.03320312 C-2.8187371 7.3525494 -1.41180852 3.67540078 0 0 Z " fill="#9A9A9A" transform="translate(187,172)"/>
<path d="M0 0 C10.23 0 20.46 0 31 0 C31 0.66 31 1.32 31 2 C30.113125 2.350625 29.22625 2.70125 28.3125 3.0625 C20.16793262 7.82630356 17.75917531 17.04000718 14.625 25.4375 C14.11395011 26.78351917 13.60204561 28.12921412 13.08935547 29.47460938 C11.68378188 33.17293749 10.29233503 36.87641989 8.90527344 40.58172607 C7.96424231 43.09552019 7.02136661 45.60861656 6.078125 48.12158203 C2.15579352 58.57176852 2.15579352 58.57176852 -1.74755859 69.02905273 C-5.36687906 78.74187495 -9.0974608 88.39706216 -13 98 C-13.66 97.67 -14.32 97.34 -15 97 C-12.7627581 88.85810759 -9.82753337 81.00232422 -6.84460449 73.11325073 C-2.25694201 60.95567994 2.24460181 48.76494219 6.52880859 36.49688721 C7.00370509 35.14080372 7.48245127 33.78606127 7.96533203 32.43280029 C12.94041756 19.63333939 12.94041756 19.63333939 11.625 6.5 C8.07887843 3.12274136 4.76007906 2.58992433 0 2 C0 1.34 0 0.68 0 0 Z " fill="#979797" transform="translate(292,163)"/>
<path d="M0 0 C0.66 0.99 1.32 1.98 2 3 C1.30376329 5.52607738 0.52101414 7.77571824 -0.46484375 10.1875 C-0.73639786 10.88641357 -1.00795197 11.58532715 -1.28773499 12.30541992 C-2.15814796 14.54223782 -3.04621396 16.77142484 -3.9375 19 C-4.82370388 21.22907528 -5.70576238 23.45943609 -6.57655334 25.69458008 C-7.11912774 27.08613067 -7.67082659 28.47416444 -8.23240662 29.8581543 C-9.84775746 33.84646577 -9.84775746 33.84646577 -9 38 C-7.72799029 36.89718873 -6.45744147 35.79269231 -5.1875 34.6875 C-4.47980469 34.07261719 -3.77210938 33.45773438 -3.04296875 32.82421875 C-1.02060357 31.07310378 -1.02060357 31.07310378 0.6015625 29.2890625 C2 28 2 28 4.5625 27.6875 C7 28 7 28 9 30 C8.8884876 35.79864496 6.97595061 39.00405029 3 43 C0.81923579 44.7872705 -1.47402978 46.36477969 -3.8125 47.9375 C-5.05913388 48.80856734 -6.30393674 49.68226115 -7.546875 50.55859375 C-8.43922852 51.18677002 -8.43922852 51.18677002 -9.34960938 51.82763672 C-16.59815416 56.97667696 -20.54496506 61.74445978 -24 70 C-26 66.25 -26 66.25 -26 64 C-26.99 63.34 -27.98 62.68 -29 62 C-20.92785824 53.78448094 -12.34610292 47.26690161 -2.39526367 41.53833008 C1.55656309 39.19594988 4.07155582 37.35360883 6 33 C6 32.34 6 31.68 6 31 C2.94023309 31.33531692 1.38542474 31.62110788 -0.84375 33.8125 C-1.3903125 34.534375 -1.936875 35.25625 -2.5 36 C-4.47952644 38.61446889 -5.45637527 39.81660853 -8.59375 40.875 C-9.78484375 40.936875 -9.78484375 40.936875 -11 41 C-11.66 40.34 -12.32 39.68 -13 39 C-12.65973572 33.77599023 -11.1542296 29.15830383 -9.27734375 24.31640625 C-9.01240616 23.61603745 -8.74746857 22.91566864 -8.47450256 22.19407654 C-7.63555237 19.98092701 -6.78672031 17.77172627 -5.9375 15.5625 C-5.36327213 14.05298534 -4.78969794 12.54322184 -4.21679688 11.03320312 C-2.8187371 7.3525494 -1.41180852 3.67540078 0 0 Z " fill="#8E8E8E" transform="translate(187,172)"/>
<path d="M0 0 C0.33 0 0.66 0 1 0 C1 7.29886294 0.78730696 13.15235264 -1.859375 20.05078125 C-2.16018478 20.85001511 -2.46099457 21.64924896 -2.7709198 22.47270203 C-3.75747452 25.08846726 -4.7535485 27.70049059 -5.75 30.3125 C-6.4308677 32.11115869 -7.11128444 33.90998814 -7.79125977 35.70898438 C-13.77242252 51.50655119 -19.85463298 67.26563649 -26 83 C-26.66 82.67 -27.32 82.34 -28 82 C-25.76266578 73.85777162 -22.82748294 66.00136839 -19.84460449 58.11187744 C-14.961583 45.17952778 -10.24525171 32.19721935 -5.75 19.125 C-5.51394043 18.442099 -5.27788086 17.759198 -5.03466797 17.05560303 C-2.06325736 8.65231664 -2.06325736 8.65231664 0 0 Z " fill="#717171" transform="translate(305,178)"/>
<path d="M0 0 C2.31228095 3.46842142 3.75568051 7.07371558 5.25 10.9375 C5.54390625 11.65357422 5.8378125 12.36964844 6.140625 13.10742188 C8.17898767 18.39442505 8.17898767 18.39442505 7.296875 21.37890625 C4.69147801 24.63565249 3.07861701 25.35600784 -1 26 C-1.86762314 23.75438718 -2.7192103 21.50473745 -3.5625 19.25 C-3.80935547 18.61578125 -4.05621094 17.9815625 -4.31054688 17.328125 C-5.58197079 13.88990821 -6.46686355 11.47831118 -5 8 C-4.67 8.66 -4.34 9.32 -4 10 C-3.01 10 -2.02 10 -1 10 C-0.37542727 6.56484998 0 3.50935186 0 0 Z " fill="#8E8E8E" transform="translate(261,215)"/>
<path d="M0 0 C0.99 0.33 1.98 0.66 3 1 C2.13411954 35.0420187 2.13411954 35.0420187 -8.9921875 47.171875 C-12.36569883 50.252591 -15.52771284 52.74216924 -20 54 C-20 53.34 -20 52.68 -20 52 C-21.32 51.34 -22.64 50.68 -24 50 C-23.40832031 49.82984375 -22.81664062 49.6596875 -22.20703125 49.484375 C-14.51964923 47.12674397 -10.03822794 44.16459796 -6 37 C-3.1182041 30.05098862 -1.00769192 23.46482607 -0.68359375 15.91796875 C-0.64169922 14.98662109 -0.59980469 14.05527344 -0.55664062 13.09570312 C-0.51732422 12.13599609 -0.47800781 11.17628906 -0.4375 10.1875 C-0.39431641 9.20845703 -0.35113281 8.22941406 -0.30664062 7.22070312 C-0.2009774 4.81392973 -0.09887673 2.40706017 0 0 Z " fill="#696969" transform="translate(203,216)"/>
<path d="M0 0 C0.79247664 2.20804559 1.5840013 4.41642497 2.375 6.625 C2.81585938 7.85476562 3.25671875 9.08453125 3.7109375 10.3515625 C4.84345711 13.55693619 5.93692898 16.77104598 7 20 C6.34 19.67 5.68 19.34 5 19 C5 18.01 5 17.02 5 16 C4.01 16 3.02 16 2 16 C1.67 17.32 1.34 18.64 1 20 C1 19.01 1 18.02 1 17 C0.34 17 -0.32 17 -1 17 C-1.33 16.01 -1.66 15.02 -2 14 C-2.66 13.67 -3.32 13.34 -4 13 C-4 13.99 -4 14.98 -4 16 C-3.34 16.33 -2.68 16.66 -2 17 C-2.66 17.99 -3.32 18.98 -4 20 C-4.86343731 17.71144298 -5.7159811 15.4198072 -6.5625 13.125 C-6.80935547 12.47402344 -7.05621094 11.82304687 -7.31054688 11.15234375 C-7.93173115 9.45502335 -8.47152252 7.72843224 -9 6 C-8.67 5.34 -8.34 4.68 -8 4 C-6.68 4 -5.36 4 -4 4 C-4 3.01 -4 2.02 -4 1 C-2 0 -2 0 0 0 Z " fill="#8F8F8F" transform="translate(221,232)"/>
<path d="M0 0 C0.66 0.99 1.32 1.98 2 3 C1.30376329 5.52607738 0.52101414 7.77571824 -0.46484375 10.1875 C-0.73639786 10.88641357 -1.00795197 11.58532715 -1.28773499 12.30541992 C-2.15814796 14.54223782 -3.04621396 16.77142484 -3.9375 19 C-4.82370388 21.22907528 -5.70576238 23.45943609 -6.57655334 25.69458008 C-7.11912774 27.08613067 -7.67082659 28.47416444 -8.23240662 29.8581543 C-9.84775746 33.84646577 -9.84775746 33.84646577 -9 38 C-7.72799029 36.89718873 -6.45744147 35.79269231 -5.1875 34.6875 C-4.47980469 34.07261719 -3.77210938 33.45773438 -3.04296875 32.82421875 C-1.02060357 31.07310378 -1.02060357 31.07310378 0.6015625 29.2890625 C2 28 2 28 4.5625 27.6875 C7 28 7 28 9 30 C8.625 33.625 8.625 33.625 8 37 C6 33.25 6 33.25 6 31 C2.94023309 31.33531692 1.38542474 31.62110788 -0.84375 33.8125 C-1.3903125 34.534375 -1.936875 35.25625 -2.5 36 C-4.47952644 38.61446889 -5.45637527 39.81660853 -8.59375 40.875 C-9.78484375 40.936875 -9.78484375 40.936875 -11 41 C-11.66 40.34 -12.32 39.68 -13 39 C-12.65973572 33.77599023 -11.1542296 29.15830383 -9.27734375 24.31640625 C-9.01240616 23.61603745 -8.74746857 22.91566864 -8.47450256 22.19407654 C-7.63555237 19.98092701 -6.78672031 17.77172627 -5.9375 15.5625 C-5.36327213 14.05298534 -4.78969794 12.54322184 -4.21679688 11.03320312 C-2.8187371 7.3525494 -1.41180852 3.67540078 0 0 Z " fill="#565656" transform="translate(187,172)"/>
<path d="M0 0 C0 0.66 0 1.32 0 2 C5.99320151 3.45933748 11.85845775 4.41509121 18 5 C17.01 5.495 17.01 5.495 16 6 C16 6.99 16 7.98 16 9 C9.5886845 11.13710517 0.5269953 11.39133884 -5.83203125 8.8828125 C-8 7.5 -8 7.5 -11 5 C-8 5 -5 5 -2 5 C-2.66 3.68 -3.32 2.36 -4 1 C-2 0 -2 0 0 0 Z " fill="#9C9C9C" transform="translate(167,262)"/>
<path d="M0 0 C0.99 0 1.98 0 3 0 C4.32 2.64 5.64 5.28 7 8 C8.32 5.36 9.64 2.72 11 0 C11.99 0 12.98 0 14 0 C14 4.29 14 8.58 14 13 C13.01 13 12.02 13 11 13 C10.67 11.68 10.34 10.36 10 9 C9.34 10.32 8.68 11.64 8 13 C7.01 13 6.02 13 5 13 C4.67 11.35 4.34 9.7 4 8 C3.34 9.65 2.68 11.3 2 13 C1.34 13 0.68 13 0 13 C0 8.71 0 4.42 0 0 Z " fill="#717171" transform="translate(229,320)"/>
<path d="M0 0 C3.5625 0.125 3.5625 0.125 5.5625 1.125 C5.63228435 3.63723656 5.6456468 5.81088986 5 8.25 C4.34126382 10.33383241 4.34126382 10.33383241 5.5625 13.125 C3.6875 12.8125 3.6875 12.8125 1.5625 12.125 C0.9025 11.135 0.2425 10.145 -0.4375 9.125 C-0.7675 10.445 -1.0975 11.765 -1.4375 13.125 C-2.4275 12.795 -3.4175 12.465 -4.4375 12.125 C-4.46437279 10.31257948 -4.48383715 8.50004767 -4.5 6.6875 C-4.51160156 5.67816406 -4.52320313 4.66882813 -4.53515625 3.62890625 C-4.38374129 -0.25337343 -4.01018381 0.14582487 0 0 Z M-0.4375 2.125 C-0.7675 3.445 -1.0975 4.765 -1.4375 6.125 C-0.1175 6.125 1.2025 6.125 2.5625 6.125 C2.5625 4.805 2.5625 3.485 2.5625 2.125 C1.5725 2.125 0.5825 2.125 -0.4375 2.125 Z " fill="#8D8D8D" transform="translate(274.4375,319.875)"/>
<path d="M0 0 C0.33 0 0.66 0 1 0 C1 12.5 1 12.5 -0.96875 17.640625 C-1.37480469 18.71054688 -1.78085937 19.78046875 -2.19921875 20.8828125 C-2.62847656 21.99398437 -3.05773437 23.10515625 -3.5 24.25 C-4.14388672 25.93996094 -4.14388672 25.93996094 -4.80078125 27.6640625 C-5.86131442 30.44501613 -6.92791717 33.22348289 -8 36 C-8.66 36 -9.32 36 -10 36 C-9.38712452 29.27752206 -7.20216662 23.22740372 -5 16.875 C-4.26808126 14.74834101 -3.53881477 12.62076693 -2.8125 10.4921875 C-2.48894531 9.55745605 -2.16539062 8.62272461 -1.83203125 7.65966797 C-1.03679826 5.11762919 -0.46973696 2.61973251 0 0 Z " fill="#747474" transform="translate(305,178)"/>
<path d="M0 0 C0.33 1.32 0.66 2.64 1 4 C-4.85261403 9.51722067 -11.12561037 13.84251068 -18 18 C-18 17.01 -18 16.02 -18 15 C-18.66 14.67 -19.32 14.34 -20 14 C-19.4652002 13.64695801 -18.93040039 13.29391602 -18.37939453 12.93017578 C-15.95965632 11.33086609 -13.54230827 9.72797984 -11.125 8.125 C-10.28324219 7.56941406 -9.44148437 7.01382813 -8.57421875 6.44140625 C-7.76855469 5.90644531 -6.96289062 5.37148437 -6.1328125 4.8203125 C-5.38918457 4.32805176 -4.64555664 3.83579102 -3.87939453 3.32861328 C-1.8863145 1.99912359 -1.8863145 1.99912359 0 0 Z " fill="#7C7C7C" transform="translate(193,207)"/>
<path d="M0 0 C5.6 1.46086957 5.6 1.46086957 7.4375 3.9375 C8.21169335 6.77620896 7.27976706 8.44046588 6 11 C5.01 11 4.02 11 3 11 C3 11.66 3 12.32 3 13 C1.0625 12.625 1.0625 12.625 -1 12 C-2.3899408 9.2201184 -2.18488204 7.0813674 -2 4 C-1 1.625 -1 1.625 0 0 Z " fill="#A0A0A0" transform="translate(204,204)"/>
<path d="M0 0 C0.99 0 1.98 0 3 0 C3.67305018 1.60149886 4.33822227 3.20631029 5 4.8125 C5.37125 5.70582031 5.7425 6.59914063 6.125 7.51953125 C7 10 7 10 7 13 C2.545 12.01 2.545 12.01 -2 11 C-2 11.66 -2 12.32 -2 13 C-2.99 12.67 -3.98 12.34 -5 12 C-3.35 8.04 -1.7 4.08 0 0 Z M1 4 C0.67 5.32 0.34 6.64 0 8 C0.99 7.67 1.98 7.34 3 7 C2.34 6.01 1.68 5.02 1 4 Z " fill="#8A8A8A" transform="translate(159,320)"/>
<path d="M0 0 C6.15234375 -0.09765625 6.15234375 -0.09765625 8 0 C9 1 9 1 9.125 3.375 C9 6 9 6 8 9 C8.38932856 11.14255793 8.38932856 11.14255793 9 13 C8.01 13 7.02 13 6 13 C5.34 11.35 4.68 9.7 4 8 C3.34 8 2.68 8 2 8 C2 9.65 2 11.3 2 13 C1.34 13 0.68 13 0 13 C0 8.71 0 4.42 0 0 Z M3 2 C3 3.32 3 4.64 3 6 C4.32 5.67 5.64 5.34 7 5 C6.67 4.01 6.34 3.02 6 2 C5.01 2 4.02 2 3 2 Z " fill="#9D9D9D" transform="translate(355,320)"/>
<path d="M0 0 C3.1875 0.875 3.1875 0.875 6 2 C6 2.99 6 3.98 6 5 C3.03 4.505 3.03 4.505 0 4 C1.95216435 5.95216435 3.53199953 6.84826645 6 8 C6 9.65 6 11.3 6 13 C3.1875 14.125 3.1875 14.125 0 15 C-0.99 14.34 -1.98 13.68 -3 13 C-3 12.01 -3 11.02 -3 10 C-0.03 10.495 -0.03 10.495 3 11 C1.04783565 9.04783565 -0.53199953 8.15173355 -3 7 C-3.1875 4.625 -3.1875 4.625 -3 2 C-2.01 1.34 -1.02 0.68 0 0 Z " fill="#8D8D8D" transform="translate(177,319)"/>
<path d="M0 0 C0.99 0 1.98 0 3 0 C3.33 0.99 3.66 1.98 4 3 C4.433125 2.505 4.86625 2.01 5.3125 1.5 C7 0 7 0 10 0 C10 0.66 10 1.32 10 2 C8 3.625 8 3.625 6 5 C6.27617533 6.94074861 6.27617533 6.94074861 7 9 C7.99 9.66 8.98 10.32 10 11 C10 11.66 10 12.32 10 13 C7.13275314 12.42655063 6.1385485 12.1385485 4 10 C3.67 10.99 3.34 11.98 3 13 C2.01 13 1.02 13 0 13 C0 8.71 0 4.42 0 0 Z " fill="#8F8F8F" transform="translate(288,320)"/>
<path d="M0 0 C0.99 0 1.98 0 3 0 C3.67305018 1.60149886 4.33822227 3.20631029 5 4.8125 C5.37125 5.70582031 5.7425 6.59914063 6.125 7.51953125 C7 10 7 10 7 13 C5.01432292 12.70703125 3.02864583 12.4140625 1.04296875 12.12109375 C-1.2025342 11.86095201 -1.2025342 11.86095201 -4 13 C-3.71517632 11.58194169 -3.42181856 10.16559621 -3.125 8.75 C-2.96257812 7.96109375 -2.80015625 7.1721875 -2.6328125 6.359375 C-2.00849925 4.03168856 -1.15161458 2.10968048 0 0 Z M1 4 C0.67 5.32 0.34 6.64 0 8 C0.99 8 1.98 8 3 8 C2.34 6.68 1.68 5.36 1 4 Z " fill="#A2A2A2" transform="translate(255,320)"/>
<path d="M0 0 C2.02350324 3.03525486 2.32124018 4.19426202 2.625 7.6875 C2.69976562 8.49574219 2.77453125 9.30398437 2.8515625 10.13671875 C2.92503906 11.05904297 2.92503906 11.05904297 3 12 C2.01 11.67 1.02 11.34 0 11 C-2.63804589 11.39397335 -2.63804589 11.39397335 -5 12 C-5.2165625 10.6078125 -5.2165625 10.6078125 -5.4375 9.1875 C-5.92100111 5.99274889 -5.92100111 5.99274889 -7 3 C-4 2 -4 2 0 2 C0 1.34 0 0.68 0 0 Z " fill="#9B9B9B" transform="translate(251,189)"/>
<path d="M0 0 C0.66 0 1.32 0 2 0 C0.54226994 7.10643403 -4.7296992 12.80526479 -10.63671875 16.76953125 C-13 18 -13 18 -15 18 C-15 17.34 -15 16.68 -15 16 C-16.32 15.34 -17.64 14.68 -19 14 C-18.11248047 13.74476563 -18.11248047 13.74476563 -17.20703125 13.484375 C-10.51010205 11.43050438 -6.36794311 9.08043416 -2.3125 3.25 C-1.549375 2.1775 -0.78625 1.105 0 0 Z " fill="#747474" transform="translate(198,252)"/>
<path d="M0 0 C2.64 0 5.28 0 8 0 C8 0.66 8 1.32 8 2 C6.35 2 4.7 2 3 2 C3 2.99 3 3.98 3 5 C4.65 5.33 6.3 5.66 8 6 C7.67 6.66 7.34 7.32 7 8 C5.68 8 4.36 8 3 8 C3 8.99 3 9.98 3 11 C4.65 11 6.3 11 8 11 C8 11.66 8 12.32 8 13 C5.36 13 2.72 13 0 13 C0 8.71 0 4.42 0 0 Z " fill="#838383" transform="translate(306,320)"/>
<path d="M0 0 C0.99 0 1.98 0 3 0 C3.99 2.64 4.98 5.28 6 8 C6.99 5.36 7.98 2.72 9 0 C9.99 0 10.98 0 12 0 C11.52140759 1.60433809 11.04210442 3.20846416 10.5625 4.8125 C10.29566406 5.70582031 10.02882812 6.59914063 9.75390625 7.51953125 C9.19612127 9.35473055 8.60655425 11.18033726 8 13 C6.68 13 5.36 13 4 13 C3.32942113 11.2097939 2.6636531 9.41778511 2 7.625 C1.62875 6.62726563 1.2575 5.62953125 0.875 4.6015625 C0 2 0 2 0 0 Z " fill="#919191" transform="translate(135,320)"/>
<path d="M0 0 C2.64 0 5.28 0 8 0 C7.67 0.66 7.34 1.32 7 2 C5.68 2 4.36 2 3 2 C3 2.66 3 3.32 3 4 C4.32 4.33 5.64 4.66 7 5 C7 5.99 7 6.98 7 8 C5.35 8 3.7 8 2 8 C2 8.99 2 9.98 2 11 C3.65 11 5.3 11 7 11 C7.33 11.66 7.66 12.32 8 13 C5.36 13 2.72 13 0 13 C0 8.71 0 4.42 0 0 Z " fill="#919191" transform="translate(339,320)"/>
<path d="M0 0 C11.88 0 23.76 0 36 0 C36 0.66 36 1.32 36 2 C32.37 2.66 28.74 3.32 25 4 C25.33 3.01 25.66 2.02 26 1 C19.4 1 12.8 1 6 1 C6.33 2.32 6.66 3.64 7 5 C4.69 4.01 2.38 3.02 0 2 C0 1.34 0 0.68 0 0 Z " fill="#686868" transform="translate(224,163)"/>
<path d="M0 0 C0 0.66 0 1.32 0 2 C1.32 2.33 2.64 2.66 4 3 C3.01 3.99 2.02 4.98 1 6 C1.99 6.66 2.98 7.32 4 8 C3.34 8 2.68 8 2 8 C2 8.66 2 9.32 2 10 C-3.62541841 9.54996653 -6.61487125 8.31558515 -11 5 C-8 5 -5 5 -2 5 C-2.66 3.68 -3.32 2.36 -4 1 C-2 0 -2 0 0 0 Z " fill="#818181" transform="translate(167,262)"/>
<path d="M0 0 C2.31 0 4.62 0 7 0 C7.625 2.8125 7.625 2.8125 8 6 C7.01 7.485 7.01 7.485 6 9 C3.03 8.505 3.03 8.505 0 8 C-1.125 2.25 -1.125 2.25 0 0 Z " fill="#A0A0A0" transform="translate(254,216)"/>
<path d="M0 0 C10.23 0 20.46 0 31 0 C31 0.66 31 1.32 31 2 C30.071875 2.45375 29.14375 2.9075 28.1875 3.375 C24.96078611 4.9421633 24.96078611 4.9421633 22 7 C21.67 5.68 21.34 4.36 21 3 C21.66 2.67 22.32 2.34 23 2 C15.41 2 7.82 2 0 2 C0 1.34 0 0.68 0 0 Z " fill="#646464" transform="translate(292,163)"/>
<path d="M0 0 C3.3 0 6.6 0 10 0 C10 0.66 10 1.32 10 2 C9.01 2 8.02 2 7 2 C7 5.63 7 9.26 7 13 C6.01 13 5.02 13 4 13 C4 9.37 4 5.74 4 2 C2.68 1.67 1.36 1.34 0 1 C0 0.67 0 0.34 0 0 Z " fill="#848484" transform="translate(321,320)"/>
<path d="M0 0 C-0.99 3.3 -1.98 6.6 -3 10 C-3.99 10 -4.98 10 -6 10 C-6.99 7.03 -7.98 4.06 -9 1 C-5.8035914 -0.06546953 -3.34252724 -0.07427838 0 0 Z " fill="#898989" transform="translate(278,262)"/>
<path d="M0 0 C1.41377341 2.63904371 2.37240135 5.07120629 3 8 C1.25 8.6875 1.25 8.6875 -1 9 C-3.25 7.5625 -3.25 7.5625 -5 6 C-5.99 7.485 -5.99 7.485 -7 9 C-8.0625 7.1875 -8.0625 7.1875 -9 5 C-8.67 4.01 -8.34 3.02 -8 2 C-8 2.66 -8 3.32 -8 4 C-6.02 3.34 -4.04 2.68 -2 2 C-1.67 2.33 -1.34 2.66 -1 3 C-0.67 2.01 -0.34 1.02 0 0 Z " fill="#909090" transform="translate(254,197)"/>
<path d="M0 0 C0.66 0.99 1.32 1.98 2 3 C1.52441406 5.25244141 1.52441406 5.25244141 0.515625 7.8515625 C0.15726563 8.78484375 -0.20109375 9.718125 -0.5703125 10.6796875 C-0.95960938 11.65164062 -1.34890625 12.62359375 -1.75 13.625 C-2.12382812 14.6046875 -2.49765625 15.584375 -2.8828125 16.59375 C-5.72108972 23.86054486 -5.72108972 23.86054486 -8 25 C-7.3440206 19.36412069 -5.43967159 14.39011658 -3.4375 9.125 C-3.10814453 8.24585938 -2.77878906 7.36671875 -2.43945312 6.4609375 C-1.63113386 4.30541947 -0.81787706 2.15190559 0 0 Z " fill="#5B5B5B" transform="translate(187,172)"/>
<path d="M0 0 C1.42603626 2.27625977 2.11478947 3.41809429 1.58447266 6.10644531 C1.2807373 6.83959961 0.97700195 7.57275391 0.6640625 8.328125 C0.18066406 9.52695313 0.18066406 9.52695313 -0.3125 10.75 C-0.8384375 11.9875 -0.8384375 11.9875 -1.375 13.25 C-1.88933594 14.51070312 -1.88933594 14.51070312 -2.4140625 15.796875 C-3.26242958 17.87066119 -4.124667 19.93748473 -5 22 C-5.66 21.67 -6.32 21.34 -7 21 C-4.96192707 13.8821847 -2.59655258 6.93292719 0 0 Z " fill="#585858" transform="translate(284,239)"/>
<path d="M0 0 C3.44216672 2.6598561 3.99504674 5.90288286 5 10 C4.34 9.67 3.68 9.34 3 9 C3 8.01 3 7.02 3 6 C-1.25731568 5.59250325 -1.25731568 5.59250325 -4.875 7.5 C-5.24625 7.995 -5.6175 8.49 -6 9 C-5.67 6.36 -5.34 3.72 -5 1 C-4.01 1 -3.02 1 -2 1 C-1.34 0.67 -0.68 0.34 0 0 Z " fill="#8D8D8D" transform="translate(207,200)"/>
<path d="M0 0 C0.99 0.33 1.98 0.66 3 1 C3 1.66 3 2.32 3 3 C3.66 3 4.32 3 5 3 C5.33 2.01 5.66 1.02 6 0 C6.33 0.66 6.66 1.32 7 2 C6.00390625 4.3828125 6.00390625 4.3828125 4.5625 7.125 C4.08941406 8.03507813 3.61632812 8.94515625 3.12890625 9.8828125 C2.75636719 10.58148438 2.38382813 11.28015625 2 12 C0 8.25 0 8.25 0 6 C-0.99 5.34 -1.98 4.68 -3 4 C-2.01 2.68 -1.02 1.36 0 0 Z " fill="#7C7C7C" transform="translate(161,230)"/>
<path d="M0 0 C0.99 0 1.98 0 3 0 C3 4.29 3 8.58 3 13 C2.01 12.67 1.02 12.34 0 12 C0 8.04 0 4.08 0 0 Z " fill="#7A7A7A" transform="translate(191,320)"/>
<path d="M0 0 C1.98 0.66 3.96 1.32 6 2 C5.34 3.32 4.68 4.64 4 6 C4.99 6 5.98 6 7 6 C6.25 10.75 6.25 10.75 4 13 C3.32694982 11.39850114 2.66177773 9.79368971 2 8.1875 C1.62875 7.29417969 1.2575 6.40085938 0.875 5.48046875 C0 3 0 3 0 0 Z " fill="#888888" transform="translate(248,207)"/>
<path d="M0 0 C0.33 0 0.66 0 1 0 C1.06978435 2.51223656 1.0831468 4.68588986 0.4375 7.125 C-0.22123618 9.20883241 -0.22123618 9.20883241 1 12 C-1.79828356 11.61402985 -2.8205884 11.19863427 -4.75 9.0625 C-6 7 -6 7 -6 5 C-4.68 5 -3.36 5 -2 5 C-1.67 4.01 -1.34 3.02 -1 2 C-0.67 1.34 -0.34 0.68 0 0 Z " fill="#838383" transform="translate(279,321)"/>
<path d="M0 0 C0.99 0 1.98 0 3 0 C3.75273735 3.68004925 4.23519324 6.41793961 3 10 C2.67 10.99 2.34 11.98 2 13 C1.34 13 0.68 13 0 13 C0 8.71 0 4.42 0 0 Z " fill="#ABABAB" transform="translate(229,320)"/>
<path d="M0 0 C0.66 0 1.32 0 2 0 C2 3.63 2 7.26 2 11 C3.65 11 5.3 11 7 11 C7 11.66 7 12.32 7 13 C4.69 13 2.38 13 0 13 C0 8.71 0 4.42 0 0 Z " fill="#ABABAB" transform="translate(203,320)"/>
<path d="M0 0 C2.97 0 5.94 0 9 0 C9.33 1.65 9.66 3.3 10 5 C5.545 4.01 5.545 4.01 1 3 C1 3.66 1 4.32 1 5 C0.01 4.67 -0.98 4.34 -2 4 C-1.34 2.68 -0.68 1.36 0 0 Z " fill="#909090" transform="translate(156,328)"/>
<path d="M0 0 C0.99 0 1.98 0 3 0 C3 4.29 3 8.58 3 13 C2.01 13.495 2.01 13.495 1 14 C0.93941406 13.39671875 0.87882813 12.7934375 0.81640625 12.171875 C0.69072266 10.97304688 0.69072266 10.97304688 0.5625 9.75 C0.48128906 8.96109375 0.40007812 8.1721875 0.31640625 7.359375 C0.05128191 5.0012079 0.05128191 5.0012079 -0.59765625 2.765625 C-0.73042969 2.18296875 -0.86320313 1.6003125 -1 1 C-0.67 0.67 -0.34 0.34 0 0 Z " fill="#949494" transform="translate(240,320)"/>
<path d="M0 0 C0.66 0.33 1.32 0.66 2 1 C1.01437243 4.31529273 0.34552581 5.74949379 -2.5 7.8125 C-5 9 -5 9 -7 9 C-7 8.34 -7 7.68 -7 7 C-8.32 6.34 -9.64 5.68 -11 5 C-10.37351563 4.80664062 -9.74703125 4.61328125 -9.1015625 4.4140625 C-8.28429687 4.15367187 -7.46703125 3.89328125 -6.625 3.625 C-5.81289062 3.36976563 -5.00078125 3.11453125 -4.1640625 2.8515625 C-1.83540815 2.10145717 -1.83540815 2.10145717 0 0 Z " fill="#707070" transform="translate(190,261)"/>
<path d="M0 0 C1.0625 1.875 1.0625 1.875 2 4 C1.67 4.66 1.34 5.32 1 6 C-2.96 6 -6.92 6 -11 6 C-8.32046159 3.32046159 -5.60334255 3.02952644 -2 2 C-1.34 1.34 -0.68 0.68 0 0 Z " fill="#848484" transform="translate(218,264)"/>
<path d="M0 0 C2.64 0 5.28 0 8 0 C7.01 0.495 7.01 0.495 6 1 C6 1.99 6 2.98 6 4 C3.36 4.33 0.72 4.66 -2 5 C-1.34 3.35 -0.68 1.7 0 0 Z " fill="#8F8F8F" transform="translate(177,267)"/>
<path d="M0 0 C0.66 0 1.32 0 2 0 C2.69685498 1.6210103 3.38222861 3.24696066 4.0625 4.875 C4.63677734 6.23238281 4.63677734 6.23238281 5.22265625 7.6171875 C6 10 6 10 5 12 C3.5 10.8125 3.5 10.8125 2 9 C1.8125 6.3125 1.8125 6.3125 2 4 C0.68 4.33 -0.64 4.66 -2 5 C-1.34 3.35 -0.68 1.7 0 0 Z " fill="#7C7C7C" transform="translate(192,161)"/>
<path d="M0 0 C0.66 0 1.32 0 2 0 C2 1.65 2 3.3 2 5 C-0.8125 6.125 -0.8125 6.125 -4 7 C-4.99 6.34 -5.98 5.68 -7 5 C-7 4.01 -7 3.02 -7 2 C-4.03 2.495 -4.03 2.495 -1 3 C-0.67 2.01 -0.34 1.02 0 0 Z " fill="#8B8B8B" transform="translate(181,327)"/>
<path d="M0 0 C2.18975773 3.28463659 2.99806563 6.20696275 4 10 C3.01 9.67 2.02 9.34 1 9 C1 8.01 1 7.02 1 6 C0.34 6 -0.32 6 -1 6 C-1.33 6.66 -1.66 7.32 -2 8 C-1.125 1.125 -1.125 1.125 0 0 Z " fill="#8B8B8B" transform="translate(200,179)"/>
<path d="M0 0 C0.98120464 3.05263664 0.98120464 4.94736336 0 8 C-0.66 8 -1.32 8 -2 8 C-3.62514468 9.45833358 -3.62514468 9.45833358 -5 11 C-3.92289822 6.69159287 -2.96052484 3.36423277 0 0 Z " fill="#7D7D7D" transform="translate(157,235)"/>
<path d="M0 0 C2.1519437 3.22791555 2.20086443 4.28400809 2 8 C0.02 8.99 0.02 8.99 -2 10 C-2.33 8.02 -2.66 6.04 -3 4 C-2.34 3.67 -1.68 3.34 -1 3 C-0.67 2.01 -0.34 1.02 0 0 Z " fill="#868686" transform="translate(249,183)"/>
<path d="M0 0 C0.66 0 1.32 0 2 0 C4 3 4 3 3.625 5.1875 C3.41875 5.785625 3.2125 6.38375 3 7 C2.01 7 1.02 7 0 7 C-0.38133299 5.0085944 -0.71325582 3.00720923 -1 1 C-0.67 0.67 -0.34 0.34 0 0 Z " fill="#A4A4A4" transform="translate(245,180)"/>
<path d="M0 0 C2.875 0.25 2.875 0.25 6 1 C7.375 3.0625 7.375 3.0625 8 5 C7.071875 4.979375 6.14375 4.95875 5.1875 4.9375 C1.97713989 4.84230396 1.97713989 4.84230396 -1 6 C-0.67 4.02 -0.34 2.04 0 0 Z " fill="#676767" transform="translate(252,327)"/>
<path d="M0 0 C0.99 0 1.98 0 3 0 C4.31626692 3.61973402 5 6.09567131 5 10 C4.34 10 3.68 10 3 10 C2.01 6.7 1.02 3.4 0 0 Z " fill="#939393" transform="translate(135,320)"/>
<path d="M0 0 C0.33 0 0.66 0 1 0 C1 12 1 12 -1 15 C-2.71056541 12.41569255 -3.05220752 11.31678461 -2.5390625 8.203125 C-2.23742187 7.22859375 -1.93578125 6.2540625 -1.625 5.25 C-1.32851563 4.26515625 -1.03203125 3.2803125 -0.7265625 2.265625 C-0.48679687 1.51796875 -0.24703125 0.7703125 0 0 Z " fill="#676767" transform="translate(305,178)"/>
<path d="M0 0 C2.04119788 1.61594832 4.04072937 3.2856382 6 5 C6 5.66 6 6.32 6 7 C3.13275314 6.42655063 2.1385485 6.1385485 0 4 C-0.66 4.99 -1.32 5.98 -2 7 C-2 5.02 -2 3.04 -2 1 C-1.34 0.67 -0.68 0.34 0 0 Z " fill="#848484" transform="translate(292,326)"/>
<path d="M0 0 C0.33 0 0.66 0 1 0 C1.25 5.625 1.25 5.625 -1 9 C-1.66 9 -2.32 9 -3 9 C-2.25 2.25 -2.25 2.25 0 0 Z " fill="#7F7F7F" transform="translate(303,190)"/>
<path d="M0 0 C0.66 0 1.32 0 2 0 C1.44894091 3.9492568 0.61064629 7.34920174 -1 11 C-1.66 10.67 -2.32 10.34 -3 10 C-2.01 6.7 -1.02 3.4 0 0 Z " fill="#5E5E5E" transform="translate(280,250)"/>
<path d="M0 0 C0.33 0.66 0.66 1.32 1 2 C2.98 1.34 4.96 0.68 7 0 C7 1.32 7 2.64 7 4 C6.01 4 5.02 4 4 4 C3.01 5.485 3.01 5.485 2 7 C0.5393715 4.35261084 0 3.10551666 0 0 Z " fill="#7F7F7F" transform="translate(245,199)"/>
<path d="M0 0 C0.66 1.32 1.32 2.64 2 4 C2.99 3.34 3.98 2.68 5 2 C4.67 3.32 4.34 4.64 4 6 C3.34 6 2.68 6 2 6 C1.34 7.32 0.68 8.64 0 10 C-1.2380014 6.42355152 -0.74926071 3.66305234 0 0 Z " fill="#A8A8A8" transform="translate(210,217)"/>
<path d="M0 0 C0.99 0.33 1.98 0.66 3 1 C2.67 1.99 2.34 2.98 2 4 C1.77674186 6.05893621 1.59294241 8.12233653 1.4375 10.1875 C1.35371094 11.27417969 1.26992187 12.36085937 1.18359375 13.48046875 C1.12300781 14.31191406 1.06242188 15.14335937 1 16 C0.67 16 0.34 16 0 16 C0 10.72 0 5.44 0 0 Z " fill="#434343" transform="translate(203,216)"/>
<path d="M0 0 C0.99 1.32 1.98 2.64 3 4 C2.34 4 1.68 4 1 4 C1 4.66 1 5.32 1 6 C0.01 6.33 -0.98 6.66 -2 7 C-3 5 -3 5 -2.6875 2.9375 C-2 1 -2 1 0 0 Z " fill="#A8A8A8" transform="translate(160,234)"/>
<path d="M0 0 C0.94875 0.350625 1.8975 0.70125 2.875 1.0625 C2.875 2.0525 2.875 3.0425 2.875 4.0625 C-2.875 2.3125 -2.875 2.3125 -5.125 0.0625 C-3.125 -0.9375 -3.125 -0.9375 0 0 Z " fill="#757575" transform="translate(180.125,319.9375)"/>
<path d="M0 0 C0.33 0.66 0.66 1.32 1 2 C0.67 2.99 0.34 3.98 0 5 C-2.0625 5.6875 -2.0625 5.6875 -4 6 C-4.33 5.01 -4.66 4.02 -5 3 C-3 1 -3 1 0 0 Z " fill="#A6A6A6" transform="translate(217,231)"/>
<path d="M0 0 C0.66 0.66 1.32 1.32 2 2 C1.64700993 5.44165321 0.95418308 7.06872538 -1 10 C-2.46726798 6.18510326 -1.43336419 3.70988378 0 0 Z " fill="#676767" transform="translate(294,212)"/>
<path d="M0 0 C0.99 0.33 1.98 0.66 3 1 C2.45276317 4.37462715 1.9451 6.08235 0 9 C-0.66 8.67 -1.32 8.34 -2 8 C-1.67 7.67 -1.34 7.34 -1 7 C-0.63239269 4.67182036 -0.29758419 2.3381615 0 0 Z " fill="#888888" transform="translate(306,179)"/>
<path d="M0 0 C1.32 0 2.64 0 4 0 C4 0.66 4 1.32 4 2 C2.03852126 3.38938077 0.03833424 4.7260411 -2 6 C-2.33 4.68 -2.66 3.36 -3 2 C-2.34 1.67 -1.68 1.34 -1 1 C-0.67 0.67 -0.34 0.34 0 0 Z " fill="#737373" transform="translate(316,164)"/>
<path d="M0 0 C0.99 0 1.98 0 3 0 C2.34 2.64 1.68 5.28 1 8 C0.34 7.34 -0.32 6.68 -1 6 C-0.625 2.875 -0.625 2.875 0 0 Z " fill="#848484" transform="translate(144,320)"/>
<path d="M0 0 C0.33 1.32 0.66 2.64 1 4 C-0.65 5.32 -2.3 6.64 -4 8 C-3.40072174 4.64404172 -2.15377564 2.62198774 0 0 Z " fill="#818181" transform="translate(194,258)"/>
<path d="M0 0 C0.66 0.33 1.32 0.66 2 1 C1.40138258 3.35171131 0.73075648 5.6859378 0 8 C-0.99 8.495 -0.99 8.495 -2 9 C-1.125 2.25 -1.125 2.25 0 0 Z " fill="#6B6B6B" transform="translate(287,232)"/>
<path d="M0 0 C0.66 0 1.32 0 2 0 C2.103125 0.61875 2.20625 1.2375 2.3125 1.875 C2.87525373 4.36526484 2.87525373 4.36526484 6 6 C4.125 6.625 4.125 6.625 2 7 C0 5 0 5 -0.125 2.375 C-0.08375 1.59125 -0.0425 0.8075 0 0 Z " fill="#5D5D5D" transform="translate(174,206)"/>
<path d="M0 0 C0.66 0 1.32 0 2 0 C1.38461538 5.53846154 1.38461538 5.53846154 -0.5625 7.875 C-1.036875 8.24625 -1.51125 8.6175 -2 9 C-1.51421457 5.87709365 -1.0013988 3.00419641 0 0 Z " fill="#616161" transform="translate(181,188)"/>
<path d="M0 0 C1.32 0 2.64 0 4 0 C2.25 4.875 2.25 4.875 0 6 C-1.125 2.25 -1.125 2.25 0 0 Z " fill="#A8A8A8" transform="translate(219,264)"/>
<path d="M0 0 C1.32 0 2.64 0 4 0 C4.33 0.99 4.66 1.98 5 3 C3.5625 5.1875 3.5625 5.1875 2 7 C1.34 4.69 0.68 2.38 0 0 Z " fill="#6F6F6F" transform="translate(250,213)"/>
</svg>
